<svg id="d5192e0a-fd75-4985-92a3-9063c233759f" data-name="Calque 1" xmlns="http://www.w3.org/2000/svg" width="1000" height="1206" viewBox="0 0 1000 1206"><title>Resin Code alt 2</title><path d="M880.7341,630.30843,822.96219,530.2458l-74.37944,42.94348,57.77191,100.06214c14.65023,25.37569,4.88018,47.97865-.001,56.43205C801.47351,738.13687,786.95886,758,757.6584,758H550V714.65332l-148.75889,85.886L550,886.42528V843H757.6584c51.377,0,97.38574-26.32251,123.07474-70.816C906.42213,727.68994,906.42213,674.80341,880.7341,630.30843Z"/><path d="M376.92487,184.03227,319.15314,284.09493l74.379,42.94323,57.77215-100.0629c14.65046-25.37508,38.93483-28.1153,48.69584-28.11456,9.76095-.00034,34.04576,2.73889,48.69647,28.11468L652.73233,407.17051l-37.34058,21.47162L764,514.52811v-171.772l-37.03887,21.47137L623.00075,184.03239c-25.689-44.49464-71.66129-71.0582-123.03825-71.05767C448.585,112.9744,402.6129,139.53818,376.92487,184.03227Z"/><path d="M242.34191,843H358V758H242.34191c-29.30069,0-43.81508-19.86326-48.69584-28.31632s-14.65044-30.95566-.00021-56.3306l104.10005-180.246L335,514.52829v-171.772l-148.823,85.886,37.15741,21.47134L119.28244,630.3092c-25.68851,44.4938-25.69667,97.37991-.0078,141.87448C144.96309,816.678,190.96446,843,242.34191,843Z"/><path d="M448.97852,637.39453v-27.8457l63.31055-73.54492c6.1875-7.377,8.80566-12.61328,8.80566-20.46875,0-12.61328-7.37793-21.18164-20.46777-21.18164-10.23437,0-20.707,5.23633-20.707,21.6582H448.97852c0-30.94141,22.61133-49.50586,51.64844-49.50586,29.98828,0,51.4082,18.80273,51.4082,49.26758,0,16.42188-6.42578,25.22852-18.08789,38.79492L486.584,609.54883h65.45117v27.8457Z"/><path d="M303.08984,1098.85449v-70.92578H245.73047v70.92578h-33.084V929.39355h33.084v69.25977h57.35937V929.39355h33.082v169.46094Z"/><path d="M488.01563,1074.10156c-12.13867,16.89844-28.085,24.75293-51.17187,24.75293h-61.168V929.39355h61.168c23.08691,0,39.0332,7.85449,51.17188,24.75293,10.47266,14.51855,10.71094,31.89258,10.71094,59.97754S498.48828,1059.583,488.01563,1074.10156ZM458.74023,969.37891c-5.47363-6.90234-13.56641-10.47266-24.752-10.47266H408.75977V1069.3418h25.22852c11.18555,0,19.27832-3.57031,24.752-10.47266,6.18848-7.37793,6.90234-18.08789,6.90234-44.74512C465.64258,987.46777,464.92871,976.75684,458.74023,969.37891Z"/><path d="M598.207,1035.06836H565.60059v63.78613h-33.083V929.39355H598.207c35.22559,0,55.93164,24.03906,55.93164,52.83789S633.43262,1035.06836,598.207,1035.06836Zm-1.666-76.16211H565.60059v46.41211H596.541c14.99512,0,24.51563-9.2832,24.51563-23.08691C621.05664,968.42676,611.53613,958.90625,596.541,958.90625Z"/><path d="M681.97949,1098.85449V929.39355h111.626v29.5127h-78.543v39.74707h66.87988V1028.167H715.0625v41.17481h78.543v29.51269Z"/></svg>